{
    "asset": {
        "version": "2.0",
        "generator": "Open Asset Import Library (assimp v5.2.cf7d3637)"
    },
    "extensionsUsed": [
        "KHR_materials_volume",
        "FB_ngon_encoding"
    ],
    "accessors": [
        {
            "bufferView": 0,
            "byteOffset": 0,
            "componentType": 5126,
            "count": 438,
            "type": "VEC3",
            "max": [
                0.5,
                0.8238999843597412,
                -0.3100000023841858
            ],
            "min": [
                -0.5,
                -4.745376458936686e-19,
                -0.5099999904632568
            ]
        },
        {
            "bufferView": 1,
            "byteOffset": 0,
            "componentType": 5126,
            "count": 438,
            "type": "VEC3",
            "max": [
                1.0,
                1.0,
                1.0
            ],
            "min": [
                -1.0,
                -1.0,
                -1.0
            ]
        },
        {
            "bufferView": 2,
            "byteOffset": 0,
            "componentType": 5126,
            "count": 438,
            "type": "VEC2",
            "max": [
                0.84375,
                0.9750000238418579
            ],
            "min": [
                0.28125,
                0.7749999761581421
            ]
        },
        {
            "bufferView": 3,
            "byteOffset": 0,
            "componentType": 5125,
            "count": 438,
            "type": "SCALAR",
            "max": [
                437
            ],
            "min": [
                0
            ]
        }
    ],
    "buffers": [
        {
            "byteLength": 15768,
            "uri": "result.bin"
        }
    ],
    "bufferViews": [
        {
            "buffer": 0,
            "byteOffset": 0,
            "byteLength": 5256,
            "target": 34962
        },
        {
            "buffer": 0,
            "byteOffset": 5256,
            "byteLength": 5256,
            "target": 34962
        },
        {
            "buffer": 0,
            "byteOffset": 10512,
            "byteLength": 3504,
            "target": 34962
        },
        {
            "buffer": 0,
            "byteOffset": 14016,
            "byteLength": 1752,
            "target": 34963
        }
    ],
    "images": [
        {
            "uri": "Textures/colormap.png"
        }
    ],
    "materials": [
        {
            "name": "colormap",
            "pbrMetallicRoughness": {
                "baseColorTexture": {
                    "index": 0
                },
                "metallicFactor": 0.0
            },
            "doubleSided": true
        },
        {
            "name": "material"
        }
    ],
    "meshes": [
        {
            "name": "brick-wall-end",
            "primitives": [
                {
                    "mode": 4,
                    "material": 0,
                    "indices": 3,
                    "attributes": {
                        "POSITION": 0,
                        "NORMAL": 1,
                        "TEXCOORD_0": 2
                    }
                }
            ]
        }
    ],
    "nodes": [
        {
            "name": "brick-wall-end",
            "mesh": 0
        }
    ],
    "samplers": [
        {
            "magFilter": 9728,
            "minFilter": 9984
        }
    ],
    "scenes": [
        {
            "nodes": [
                0
            ]
        }
    ],
    "textures": [
        {
            "source": 0,
            "sampler": 0
        }
    ],
    "scene": 0
}